<svg version="1.1" id="Layer_1" xmlns="http://www.w3.org/2000/svg" xmlns:xlink="http://www.w3.org/1999/xlink" x="0px" y="0px"
	 width="100%" viewBox="0 0 1024 1024" enable-background="new 0 0 1024 1024" xml:space="preserve">
<path fill="#000000" opacity="1.000000" stroke="none" 
	d="
M576.000000,1025.000000 
	C384.000000,1025.000000 192.500000,1025.000000 1.000000,1025.000000 
	C1.000000,683.666687 1.000000,342.333344 1.000000,1.000000 
	C342.333344,1.000000 683.666687,1.000000 1025.000000,1.000000 
	C1025.000000,342.333344 1025.000000,683.666687 1025.000000,1025.000000 
	C875.500000,1025.000000 726.000000,1025.000000 576.000000,1025.000000 
M467.913116,693.998230 
	C392.013245,693.998230 316.113403,693.998230 240.285690,693.998230 
	C240.285690,698.648254 240.285690,702.720947 240.285690,706.788269 
	C420.928864,706.788269 601.283447,706.788269 781.787964,706.788269 
	C781.787964,702.501587 781.787964,698.431274 781.787964,693.997131 
	C779.786072,693.997131 777.993347,693.997070 776.200562,693.997070 
	C705.729004,693.997070 635.257446,693.992004 564.785889,694.016785 
	C562.082397,694.017761 559.379028,694.307495 556.764587,693.695374 
	C557.643311,690.920776 558.495911,688.137573 559.406311,685.373413 
	C561.253601,679.764648 563.246582,674.200684 564.954834,668.550354 
	C565.985352,665.141541 566.426086,661.555908 567.428284,658.136719 
	C569.164307,652.213806 571.151550,646.364990 572.994141,640.472778 
	C574.660095,635.145325 576.155945,629.761658 577.942749,624.475708 
	C579.824341,618.909180 582.177917,613.495789 583.909485,607.887146 
	C585.005005,604.338501 585.259094,600.537720 586.041931,596.882507 
	C586.630066,594.136597 586.855042,591.053162 588.303650,588.804016 
	C591.566223,583.738586 591.598938,577.731445 593.871277,572.393066 
	C595.242371,569.172119 595.098938,565.340393 596.142395,561.938416 
	C597.876221,556.285828 600.246338,550.825867 601.922241,545.158691 
	C603.580017,539.553040 604.443604,533.710693 606.135620,528.117371 
	C608.509888,520.268188 611.510681,512.609009 613.904907,504.765259 
	C616.300110,496.918488 618.056519,488.874847 620.513306,481.049438 
	C622.324219,475.281097 624.945740,469.772278 626.953125,464.059021 
	C628.489563,459.686249 629.658569,455.182587 630.939880,450.722473 
	C632.312622,445.943970 633.600159,441.140991 634.970581,436.361847 
	C636.942444,429.485229 639.056946,422.647888 640.924377,415.743439 
	C643.059570,407.849335 644.979248,399.897095 647.016663,391.976288 
	C647.745483,389.142975 648.422913,386.287659 649.337097,383.512665 
	C651.139832,378.040741 653.232117,372.661743 654.944519,367.163300 
	C656.896729,360.894958 658.386353,354.480103 660.414368,348.238525 
	C662.005310,343.341888 664.274170,338.668213 665.939270,333.792114 
	C667.597656,328.935944 664.848999,325.884369 658.569702,326.068726 
	C641.561279,326.568176 624.564392,327.467316 607.555664,327.948730 
	C597.774475,328.225555 587.979065,327.998901 578.726013,327.998901 
	C577.915344,330.649323 577.376038,332.681519 576.673889,334.655792 
	C574.814880,339.883209 572.698181,345.027374 571.052307,350.319183 
	C570.016357,353.650024 569.716980,357.203644 568.949890,360.626556 
	C568.377563,363.180389 567.644531,365.703064 566.878052,368.207458 
	C565.629822,372.285919 564.277100,376.332306 563.018372,380.407623 
	C562.827393,381.026001 563.044250,381.774933 562.836609,382.382935 
	C560.919556,387.995941 558.809448,393.547363 557.051392,399.208588 
	C556.046570,402.444092 555.845276,405.930084 554.830505,409.161407 
	C553.072754,414.758484 550.724182,420.174774 549.069763,425.798187 
	C547.405945,431.453735 546.472778,437.321442 544.885254,443.002777 
	C542.394531,451.916840 539.658325,460.763275 536.950378,469.615173 
	C536.064941,472.509674 535.001343,475.354156 533.915405,478.181641 
	C532.662109,481.444733 531.061340,484.592499 530.042542,487.922241 
	C529.064941,491.117157 528.938599,494.578644 527.903870,497.748535 
	C526.158386,503.095947 523.843933,508.256012 522.045471,513.588196 
	C520.503235,518.160706 519.227539,522.833557 518.052673,527.516785 
	C516.580872,533.383484 515.401672,539.323669 513.925049,545.188965 
	C513.652405,546.271912 512.566833,547.150085 511.059143,547.950928 
	C509.942322,543.429626 509.046814,538.838623 507.651215,534.405029 
	C505.995697,529.145752 503.683228,524.091187 502.072784,518.820374 
	C500.410278,513.379150 499.542603,507.689514 497.789612,502.282837 
	C495.863831,496.343231 492.994690,490.706238 491.123260,484.752960 
	C487.500244,473.227478 484.300140,461.569305 480.897614,449.974091 
	C480.135437,447.376709 479.304108,444.797577 478.430267,442.235382 
	C476.650299,437.016388 474.746338,431.838684 473.029144,426.599457 
	C471.058472,420.586700 469.138458,414.553711 467.375946,408.477448 
	C465.789886,403.009735 464.425079,397.477173 463.005127,391.962280 
	C462.235107,388.971588 461.752106,385.892792 460.789337,382.969055 
	C459.000641,377.537262 456.874176,372.217407 455.039612,366.799713 
	C453.178497,361.303864 451.563568,355.724884 449.723785,350.221436 
	C447.895050,344.750977 445.068390,339.451508 444.264465,333.849548 
	C443.547516,328.853577 441.533752,327.941406 437.192413,327.960480 
	C411.373718,328.074066 385.554199,328.000671 359.734955,328.003906 
	C358.623016,328.004059 357.511108,328.139832 356.273865,328.220612 
	C355.362396,334.705353 357.422058,340.089783 359.819366,345.690704 
	C362.606567,352.202393 364.331360,359.178741 366.375916,365.995819 
	C368.676636,373.667175 370.823608,381.384735 373.029968,389.084351 
	C374.380005,393.795685 375.543854,398.568878 377.103729,403.209290 
	C378.881165,408.496948 381.265930,413.587646 382.908508,418.911469 
	C384.617249,424.449768 385.623596,430.200745 387.176849,435.792084 
	C388.979828,442.282410 391.062988,448.694550 392.984924,455.152405 
	C393.773956,457.803528 394.307007,460.539215 395.224304,463.142029 
	C397.056061,468.339478 399.177795,473.435242 400.985199,478.640594 
	C403.010132,484.472260 404.824310,490.377228 406.721771,496.253021 
	C409.813416,505.826691 413.000580,515.371155 415.946625,524.989441 
	C417.650635,530.552612 418.839294,536.272095 420.478027,541.857178 
	C422.885620,550.062622 425.483185,558.212402 428.010529,566.382507 
	C428.888031,569.219299 429.781097,572.051453 430.695953,574.876404 
	C432.453766,580.304138 434.364471,585.686829 435.952423,591.163391 
	C436.906067,594.452271 437.140594,597.950439 438.102600,601.236145 
	C439.907623,607.401245 442.020508,613.475708 443.975586,619.597473 
	C444.838654,622.299927 445.512177,625.067810 446.475983,627.732178 
	C448.586090,633.565247 450.889771,639.328369 452.995300,645.162964 
	C454.935242,650.538696 456.843536,655.932007 458.536987,661.388550 
	C460.175629,666.668640 461.529907,672.037170 462.995056,677.370728 
	C463.859192,680.516663 464.473816,683.753723 465.617706,686.792847 
	C466.482758,689.090881 468.008087,691.140381 469.004333,693.636780 
	C469.004333,693.636780 468.828857,694.012146 467.913116,693.998230 
z"/>
<path fill="#2C54CB" opacity="1.000000" stroke="none" 
	d="
M469.239532,693.300537 
	C468.008087,691.140381 466.482758,689.090881 465.617706,686.792847 
	C464.473816,683.753723 463.859192,680.516663 462.995056,677.370728 
	C461.529907,672.037170 460.175629,666.668640 458.536987,661.388550 
	C456.843536,655.932007 454.935242,650.538696 452.995300,645.162964 
	C450.889771,639.328369 448.586090,633.565247 446.475983,627.732178 
	C445.512177,625.067810 444.838654,622.299927 443.975586,619.597473 
	C442.020508,613.475708 439.907623,607.401245 438.102600,601.236145 
	C437.140594,597.950439 436.906067,594.452271 435.952423,591.163391 
	C434.364471,585.686829 432.453766,580.304138 430.695953,574.876404 
	C429.781097,572.051453 428.888031,569.219299 428.010529,566.382507 
	C425.483185,558.212402 422.885620,550.062622 420.478027,541.857178 
	C418.839294,536.272095 417.650635,530.552612 415.946625,524.989441 
	C413.000580,515.371155 409.813416,505.826691 406.721771,496.253021 
	C404.824310,490.377228 403.010132,484.472260 400.985199,478.640594 
	C399.177795,473.435242 397.056061,468.339478 395.224304,463.142029 
	C394.307007,460.539215 393.773956,457.803528 392.984924,455.152405 
	C391.062988,448.694550 388.979828,442.282410 387.176849,435.792084 
	C385.623596,430.200745 384.617249,424.449768 382.908508,418.911469 
	C381.265930,413.587646 378.881165,408.496948 377.103729,403.209290 
	C375.543854,398.568878 374.380005,393.795685 373.029968,389.084351 
	C370.823608,381.384735 368.676636,373.667175 366.375916,365.995819 
	C364.331360,359.178741 362.606567,352.202393 359.819366,345.690704 
	C357.422058,340.089783 355.362396,334.705353 356.273865,328.220612 
	C357.511108,328.139832 358.623016,328.004059 359.734955,328.003906 
	C385.554199,328.000671 411.373718,328.074066 437.192413,327.960480 
	C441.533752,327.941406 443.547516,328.853577 444.264465,333.849548 
	C445.068390,339.451508 447.895050,344.750977 449.723785,350.221436 
	C451.563568,355.724884 453.178497,361.303864 455.039612,366.799713 
	C456.874176,372.217407 459.000641,377.537262 460.789337,382.969055 
	C461.752106,385.892792 462.235107,388.971588 463.005127,391.962280 
	C464.425079,397.477173 465.789886,403.009735 467.375946,408.477448 
	C469.138458,414.553711 471.058472,420.586700 473.029144,426.599457 
	C474.746338,431.838684 476.650299,437.016388 478.430267,442.235382 
	C479.304108,444.797577 480.135437,447.376709 480.897614,449.974091 
	C484.300140,461.569305 487.500244,473.227478 491.123260,484.752960 
	C492.994690,490.706238 495.863831,496.343231 497.789612,502.282837 
	C499.542603,507.689514 500.410278,513.379150 502.072784,518.820374 
	C503.683228,524.091187 505.995697,529.145752 507.651215,534.405029 
	C509.046814,538.838623 509.942322,543.429626 511.514771,548.476074 
	C513.179504,555.653259 513.792542,562.482849 515.710571,568.923706 
	C521.271851,587.598755 527.438354,606.092590 533.214294,624.705017 
	C539.235779,644.108215 545.078857,663.566772 550.779541,683.271729 
	C550.236511,686.306030 549.913940,689.069641 549.502563,692.594482 
	C547.938904,692.718445 545.711060,693.039612 543.481750,693.049622 
	C518.734497,693.161011 493.986969,693.224304 469.239532,693.300537 
z"/>
<path fill="#F4893B" opacity="1.000000" stroke="none" 
	d="
M551.000000,683.001160 
	C545.078857,663.566772 539.235779,644.108215 533.214294,624.705017 
	C527.438354,606.092590 521.271851,587.598755 515.710571,568.923706 
	C513.792542,562.482849 513.179504,555.653259 511.913452,548.562012 
	C512.566833,547.150085 513.652405,546.271912 513.925049,545.188965 
	C515.401672,539.323669 516.580872,533.383484 518.052673,527.516785 
	C519.227539,522.833557 520.503235,518.160706 522.045471,513.588196 
	C523.843933,508.256012 526.158386,503.095947 527.903870,497.748535 
	C528.938599,494.578644 529.064941,491.117157 530.042542,487.922241 
	C531.061340,484.592499 532.662109,481.444733 533.915405,478.181641 
	C535.001343,475.354156 536.064941,472.509674 536.950378,469.615173 
	C539.658325,460.763275 542.394531,451.916840 544.885254,443.002777 
	C546.472778,437.321442 547.405945,431.453735 549.069763,425.798187 
	C550.724182,420.174774 553.072754,414.758484 554.830505,409.161407 
	C555.845276,405.930084 556.046570,402.444092 557.051392,399.208588 
	C558.809448,393.547363 560.919556,387.995941 562.836609,382.382935 
	C563.044250,381.774933 562.827393,381.026001 563.018372,380.407623 
	C564.277100,376.332306 565.629822,372.285919 566.878052,368.207458 
	C567.644531,365.703064 568.377563,363.180389 568.949890,360.626556 
	C569.716980,357.203644 570.016357,353.650024 571.052307,350.319183 
	C572.698181,345.027374 574.814880,339.883209 576.673889,334.655792 
	C577.376038,332.681519 577.915344,330.649323 578.726013,327.998901 
	C587.979065,327.998901 597.774475,328.225555 607.555664,327.948730 
	C624.564392,327.467316 641.561279,326.568176 658.569702,326.068726 
	C664.848999,325.884369 667.597656,328.935944 665.939270,333.792114 
	C664.274170,338.668213 662.005310,343.341888 660.414368,348.238525 
	C658.386353,354.480103 656.896729,360.894958 654.944519,367.163300 
	C653.232117,372.661743 651.139832,378.040741 649.337097,383.512665 
	C648.422913,386.287659 647.745483,389.142975 647.016663,391.976288 
	C644.979248,399.897095 643.059570,407.849335 640.924377,415.743439 
	C639.056946,422.647888 636.942444,429.485229 634.970581,436.361847 
	C633.600159,441.140991 632.312622,445.943970 630.939880,450.722473 
	C629.658569,455.182587 628.489563,459.686249 626.953125,464.059021 
	C624.945740,469.772278 622.324219,475.281097 620.513306,481.049438 
	C618.056519,488.874847 616.300110,496.918488 613.904907,504.765259 
	C611.510681,512.609009 608.509888,520.268188 606.135620,528.117371 
	C604.443604,533.710693 603.580017,539.553040 601.922241,545.158691 
	C600.246338,550.825867 597.876221,556.285828 596.142395,561.938416 
	C595.098938,565.340393 595.242371,569.172119 593.871277,572.393066 
	C591.598938,577.731445 591.566223,583.738586 588.303650,588.804016 
	C586.855042,591.053162 586.630066,594.136597 586.041931,596.882507 
	C585.259094,600.537720 585.005005,604.338501 583.909485,607.887146 
	C582.177917,613.495789 579.824341,618.909180 577.942749,624.475708 
	C576.155945,629.761658 574.660095,635.145325 572.994141,640.472778 
	C571.151550,646.364990 569.164307,652.213806 567.428284,658.136719 
	C566.426086,661.555908 565.985352,665.141541 564.954834,668.550354 
	C563.246582,674.200684 561.253601,679.764648 559.406311,685.373413 
	C558.495911,688.137573 557.643311,690.920776 556.523926,694.231018 
	C555.996399,694.935120 555.691772,695.060547 555.116943,694.829529 
	C553.576355,690.677856 552.288147,686.839478 551.000000,683.001160 
z"/>
<path fill="#FDFDFE" opacity="1.000000" stroke="none" 
	d="
M555.369385,695.142883 
	C555.691772,695.060547 555.996399,694.935120 556.479492,694.614624 
	C559.379028,694.307495 562.082397,694.017761 564.785889,694.016785 
	C635.257446,693.992004 705.729004,693.997070 776.200562,693.997070 
	C777.993347,693.997070 779.786072,693.997131 781.787964,693.997131 
	C781.787964,698.431274 781.787964,702.501587 781.787964,706.788269 
	C601.283447,706.788269 420.928864,706.788269 240.285690,706.788269 
	C240.285690,702.720947 240.285690,698.648254 240.285690,693.998230 
	C316.113403,693.998230 392.013245,693.998230 468.589813,694.284119 
	C470.972412,695.033264 472.676910,695.893860 474.384491,695.900024 
	C499.763062,695.991882 525.142029,695.985779 550.520874,695.940308 
	C552.137512,695.937378 553.753235,695.420593 555.369385,695.142883 
z"/>
<path fill="#375FCD" opacity="1.000000" stroke="none" 
	d="
M555.116943,694.829529 
	C553.753235,695.420593 552.137512,695.937378 550.520874,695.940308 
	C525.142029,695.985779 499.763062,695.991882 474.384491,695.900024 
	C472.676910,695.893860 470.972412,695.033264 469.047668,694.291077 
	C468.828857,694.012146 469.004333,693.636780 469.121948,693.468689 
	C493.986969,693.224304 518.734497,693.161011 543.481750,693.049622 
	C545.711060,693.039612 547.938904,692.718445 549.502563,692.594482 
	C549.913940,689.069641 550.236511,686.306030 550.779541,683.271729 
	C552.288147,686.839478 553.576355,690.677856 555.116943,694.829529 
z"/>
</svg>